<svg t="1668085649173" class="icon" viewBox="0 0 1024 1024" version="1.1" xmlns="http://www.w3.org/2000/svg" p-id="2462" width="32" height="32"><path d="M298.666667 853.333333h597.333333V170.666667H298.666667v682.666666z m-42.666667 0V384H170.666667v469.333333h85.333333zM298.666667 128h597.333333a42.666667 42.666667 0 0 1 42.666667 42.666667v682.666666a42.666667 42.666667 0 0 1-42.666667 42.666667H170.666667a42.666667 42.666667 0 0 1-42.666667-42.666667V384a42.666667 42.666667 0 0 1 42.666667-42.666667h85.333333V170.666667a42.666667 42.666667 0 0 1 42.666667-42.666667z" fill="#515151" p-id="2463"></path><path d="M384 341.333333h426.666667v42.666667H384zM384 426.666667h426.666667v42.666666H384zM384 384h42.666667v42.666667H384zM768 384h42.666667v42.666667h-42.666667zM426.666667 682.666667h341.333333v42.666666h-341.333333z" fill="#515151" p-id="2464"></path></svg>